<svg aria-hidden="true" style="position: absolute; width: 0; height: 0; overflow: hidden;" version="1.1" xmlns="http://www.w3.org/2000/svg" xmlns:xlink="http://www.w3.org/1999/xlink">
<defs>
<symbol id="icon-file-add" viewBox="0 0 24 24">
<path d="M8 7v2h6v-2h-6zM8 11h9v-1h-9v1zM17 12h-8v1h8v-1zM17 15v-1h-7v1h7zM8 14h-3v3h-3v3h3v3h3v-3h3v-3h-3v-3zM4 2v10h2v-8h13v17h-6.643l-1 2h9.643v-21h-17z"></path>
</symbol>
<symbol id="icon-arrow-left" viewBox="0 0 24 24">
<path d="M17.997 10h-9v-4.5l-6.494 6.5 6.494 6.5v-4.5h9.047c1.080 0 1.953-0.894 1.953-2s-0.92-2-2-2z"></path>
</symbol>
<symbol id="icon-arrow-up" viewBox="0 0 24 24">
<path d="M14 19v-9h4.5l-6.5-6.494-6.5 6.494h4.5v9.047c0 1.080 0.894 1.953 2 1.953s2-0.92 2-2z"></path>
</symbol>
<symbol id="icon-arrow-down" viewBox="0 0 24 24">
<path d="M9.999 6v9h-4.5l6.5 6.494 6.5-6.494h-4.5v-9.047c0-1.080-0.894-1.953-2-1.953-1.107 0-2 0.92-2 2z"></path>
</symbol>
<symbol id="icon-arrow-right" viewBox="0 0 24 24">
<path d="M5 14h9v4.5l6.494-6.5-6.494-6.5v4.5h-9.047c-1.080 0-1.953 0.894-1.953 2s0.92 2 2 2z"></path>
</symbol>
<symbol id="icon-enter" viewBox="0 0 24 24">
<path d="M12.199 11.566l-4.199-4.199v2.633h-7v3h7v2.766l4.199-4.2zM9 1v3.367l2 2v-3.367h8.089l-6.089 2v12h-2v-0.234l-2 2v0.234h4v4l9-3v-19z"></path>
</symbol>
<symbol id="icon-user" viewBox="0 0 24 24">
<path d="M12 15c0 0-8 0-11 7 0 0 5.010 2 11 2s11-2 11-2c-3-7-11-7-11-7zM12 14c3 0 5-3 5-8s-5-5-5-5-5 0-5 5 2 8 5 8z"></path>
</symbol>
<symbol id="icon-plus" viewBox="0 0 32 32">
<path d="M31 12h-11v-11c0-0.552-0.447-1-1-1h-6c-0.553 0-1 0.448-1 1v11h-11c-0.553 0-1 0.448-1 1v6c0 0.553 0.447 1 1 1h11v11c0 0.553 0.447 1 1 1h6c0.553 0 1-0.447 1-1v-11h11c0.553 0 1-0.447 1-1v-6c0-0.552-0.447-1-1-1z"></path>
</symbol>
<symbol id="icon-minus" viewBox="0 0 32 32">
<path d="M1 12h30c0.553 0 1 0.448 1 1v6c0 0.553-0.447 1-1 1h-30c-0.552 0-1-0.447-1-1v-6c0-0.552 0.448-1 1-1z"></path>
</symbol>
<symbol id="icon-bin2" viewBox="0 0 32 32">
<path d="M6 32h20l2-22h-24zM20 4v-4h-8v4h-10v6l2-2h24l2 2v-6h-10zM18 4h-4v-2h4v2z"></path>
</symbol>
</defs>
</svg>
